<svg id="svg" version="1.1" width="400" height="346.6666666666667" viewBox="0 0 400 346.6666666666667" xmlns="http://www.w3.org/2000/svg" xmlns:xlink="http://www.w3.org/1999/xlink" ><g id="svgg"><path id="path0" d="M364.513 4.302 C 350.887 24.777,328.252 40.392,302.576 47.031 C 293.496 49.378,283.070 50.886,251.171 54.465 C 185.854 61.792,146.890 72.892,111.209 94.335 C 64.430 122.447,37.412 167.279,33.314 223.591 C 31.161 253.171,35.928 269.988,49.436 280.474 C 55.175 284.928,54.714 285.181,56.373 276.670 C 64.361 235.705,77.792 207.931,102.644 180.983 C 131.514 149.677,168.008 129.752,220.614 116.572 C 246.999 109.961,270.346 100.832,301.574 84.915 C 304.205 83.574,306.436 82.556,306.532 82.652 C 307.154 83.275,284.886 97.903,270.945 106.029 C 250.238 118.100,242.391 121.754,217.520 130.911 C 200.184 137.293,180.307 145.398,172.940 149.088 C 139.328 165.925,106.440 197.003,92.640 224.970 C 84.507 241.451,78.208 263.925,74.794 288.638 C 73.571 297.490,73.057 302.712,71.984 317.150 L 71.812 319.468 73.831 322.006 C 83.102 333.663,104.981 341.897,121.163 339.819 C 196.294 330.173,257.299 284.163,302.869 202.775 C 332.583 149.708,356.104 77.315,366.159 7.979 C 366.643 4.640,367.040 1.791,367.041 1.648 C 367.045 0.861,366.243 1.703,364.513 4.302 " stroke="none" fill="#83fb04" fill-rule="evenodd"></path><path id="path1" d="M0.000 173.461 L 0.000 346.921 200.000 346.921 L 400.000 346.921 400.000 173.461 L 400.000 0.000 200.000 0.000 L 0.000 0.000 0.000 173.461 M367.041 1.648 C 367.036 2.504,365.048 15.403,363.738 23.070 C 355.455 71.576,340.150 123.190,321.768 164.614 C 275.143 269.681,207.532 328.730,121.163 339.819 C 104.981 341.897,83.102 333.663,73.831 322.006 L 71.812 319.468 71.984 317.150 C 73.057 302.712,73.571 297.490,74.794 288.638 C 78.208 263.925,84.507 241.451,92.640 224.970 C 106.440 197.003,139.328 165.925,172.940 149.088 C 180.307 145.398,200.184 137.293,217.520 130.911 C 242.391 121.754,250.238 118.100,270.945 106.029 C 284.886 97.903,307.154 83.275,306.532 82.652 C 306.436 82.556,304.205 83.574,301.574 84.915 C 270.346 100.832,246.999 109.961,220.614 116.572 C 168.008 129.752,131.514 149.677,102.644 180.983 C 77.792 207.931,64.361 235.705,56.373 276.670 C 54.714 285.181,55.175 284.928,49.436 280.474 C 35.928 269.988,31.161 253.171,33.314 223.591 C 37.412 167.279,64.430 122.447,111.209 94.335 C 146.890 72.892,185.854 61.792,251.171 54.465 C 283.070 50.886,293.496 49.378,302.576 47.031 C 328.252 40.392,350.887 24.777,364.513 4.302 C 366.243 1.703,367.045 0.861,367.041 1.648 " stroke="none" fill="#f4f4f4" fill-rule="evenodd"></path></g></svg>